<?xml version="1.0" encoding="utf-8"?>
<svg xmlns="http://www.w3.org/2000/svg" viewBox="0 0 250 250" fill="none" width="250" height="250" xmlns:bx="https://boxy-svg.com">
  <defs>
    <linearGradient id="color-0" gradientUnits="userSpaceOnUse" bx:pinned="true">
      <title>led-color-off</title>
      <stop style="stop-color: rgb(55, 55, 55)"/>
    </linearGradient>
    <linearGradient id="color-1" gradientUnits="userSpaceOnUse" bx:pinned="true">
      <title>led-color-on</title>
      <stop style="stop-color: rgb(132, 204, 22)"/>
    </linearGradient>
    <linearGradient id="color-2" gradientUnits="userSpaceOnUse" bx:pinned="true">
      <title>led-color-active</title>
      <stop style="stop-color: rgb(223, 0, 82)"/>
    </linearGradient>
    <linearGradient id="color-3" gradientUnits="userSpaceOnUse" bx:pinned="true">
      <title>led-color-waiting</title>
      <stop style="stop-color: rgb(216, 218, 0)"/>
    </linearGradient>
    <linearGradient id="color-4" gradientUnits="userSpaceOnUse" bx:pinned="true">
      <title>led-color-powerup</title>
      <stop style="stop-color: rgb(229, 231, 235)"/>
    </linearGradient>
    <linearGradient id="color-5" gradientUnits="userSpaceOnUse" bx:pinned="true">
      <title>led-color-powerdown</title>
      <stop style="stop-color: rgb(222, 0, 0)"/>
    </linearGradient>
  </defs>
  <rect style="stroke-linecap: round; paint-order: stroke; fill: rgb(156, 163, 175); stroke: rgb(53, 53, 53); stroke-width: 20px;" x="10" y="10" width="230" height="230" rx="25" ry="25">
    <title>Main Rectangle</title>
  </rect>
  <g transform="matrix(1, 0, 0, 1, -0.000004, -72)">
    <title>Panel 1</title>
    <rect x="32.979" y="105" width="184.042" height="40" style="fill: rgb(107, 114, 128); stroke-linecap: round; stroke-linejoin: round; paint-order: fill; stroke-width: 0px;" rx="12" ry="12">
      <title>Panel</title>
    </rect>
    <g>
      <title>All Buttons Group</title>
      <g>
        <title>Buttons Group</title>
        <ellipse style="fill: rgb(132, 204, 22);" cx="57" cy="125" rx="10" ry="10">
          <title>Button 1</title>
        </ellipse>
        <ellipse style="stroke-width: 1; fill: rgb(223, 0, 82);" cx="87" cy="125" rx="10" ry="10">
          <title>Button 2</title>
        </ellipse>
        <ellipse style="fill: rgb(132, 204, 22); stroke-width: 1;" cx="117" cy="125" rx="10" ry="10">
          <title>Button 3</title>
        </ellipse>
      </g>
      <rect x="148" y="115" width="55" height="20" style="fill: rgb(229, 231, 235);" rx="10" ry="10">
        <title>Wide Button</title>
      </rect>
    </g>
  </g>
  <g transform="matrix(1, 0, 0, 1, 0, -12)">
    <title>Panel 2</title>
    <rect x="32.979" y="105" width="184.042" height="40" style="fill: rgb(107, 114, 128); stroke-linecap: round; stroke-linejoin: round; paint-order: fill; stroke-width: 0px;" rx="12" ry="12">
      <title>Panel</title>
    </rect>
    <g>
      <title>All Buttons Group</title>
      <g>
        <title>Buttons Group</title>
        <ellipse style="fill: rgb(132, 204, 22);" cx="57" cy="125" rx="10" ry="10">
          <title>Button 1</title>
        </ellipse>
        <ellipse style="stroke-width: 1; fill: rgb(223, 0, 82);" cx="87" cy="125" rx="10" ry="10">
          <title>Button 2</title>
        </ellipse>
        <ellipse style="stroke-width: 1; fill: rgb(216, 218, 0);" cx="117" cy="125" rx="10" ry="10">
          <title>Button 3</title>
        </ellipse>
      </g>
      <rect x="148" y="115" width="55" height="20" style="fill: rgb(222, 0, 0);" rx="10" ry="10">
        <title>Wide Button</title>
      </rect>
    </g>
  </g>
  <rect x="25" y="153" width="200" height="65" style="fill: rgb(107, 114, 128); stroke-linecap: round; stroke-linejoin: round; paint-order: fill; stroke-width: 0;" rx="12" ry="12">
    <title>Panel Main</title>
  </rect>
  <g>
    <rect x="30" y="161.615" width="5" height="10" style="fill: rgb(55, 55, 55);" rx="3" ry="3" id="led-1-1">
      <title>led</title>
    </rect>
    <rect x="57.408" y="161.615" width="5" height="10" style="fill: rgb(55, 55, 55); stroke-width: 1;" rx="3" ry="3">
      <title>led</title>
    </rect>
    <rect x="71.112" y="161.615" width="5" height="10" style="fill: rgb(55, 55, 55); stroke-width: 1;" rx="3" ry="3">
      <title>led</title>
    </rect>
    <rect x="84.816" y="161.615" width="5" height="10" style="fill: rgb(55, 55, 55); stroke-width: 1;" rx="3" ry="3">
      <title>led</title>
    </rect>
    <rect x="201.3" y="161.615" width="5" height="10" style="fill: rgb(55, 55, 55); stroke-width: 1;" rx="3" ry="3">
      <title>led</title>
    </rect>
    <rect x="215" y="161.615" width="5" height="10" style="fill: rgb(55, 55, 55); stroke-width: 1;" rx="3" ry="3">
      <title>led</title>
    </rect>
    <rect x="64.26" y="161.615" width="5" height="10" style="fill: rgb(55, 55, 55); stroke-width: 1;" rx="3" ry="3">
      <title>led</title>
    </rect>
    <rect x="77.964" y="161.615" width="5" height="10" style="fill: rgb(55, 55, 55); stroke-width: 1;" rx="3" ry="3">
      <title>led</title>
    </rect>
    <rect x="194.448" y="161.615" width="5" height="10" style="fill: rgb(55, 55, 55); stroke-width: 1;" rx="3" ry="3">
      <title>led</title>
    </rect>
    <rect x="208.152" y="161.615" width="5" height="10" style="fill: rgb(55, 55, 55); stroke-width: 1;" rx="3" ry="3">
      <title>led</title>
    </rect>
    <rect x="187.596" y="161.615" width="5" height="10" style="fill: rgb(55, 55, 55); stroke-width: 1;" rx="3" ry="3">
      <title>led</title>
    </rect>
    <rect x="180.744" y="161.615" width="5" height="10" style="fill: rgb(55, 55, 55); stroke-width: 1;" rx="3" ry="3">
      <title>led</title>
    </rect>
    <rect x="125.928" y="161.615" width="5" height="10" style="fill: rgb(55, 55, 55); stroke-width: 1;" rx="3" ry="3">
      <title>led</title>
    </rect>
    <rect x="119.076" y="161.615" width="5" height="10" style="fill: rgb(55, 55, 55); stroke-width: 1;" rx="3" ry="3">
      <title>led</title>
    </rect>
    <rect x="112.224" y="161.615" width="5" height="10" style="fill: rgb(55, 55, 55); stroke-width: 1;" rx="3" ry="3">
      <title>led</title>
    </rect>
    <rect x="105.372" y="161.615" width="5" height="10" style="fill: rgb(55, 55, 55); stroke-width: 1;" rx="3" ry="3">
      <title>led</title>
    </rect>
    <rect x="98.52" y="161.615" width="5" height="10" style="fill: rgb(55, 55, 55); stroke-width: 1;" rx="3" ry="3">
      <title>led</title>
    </rect>
    <rect x="91.668" y="161.615" width="5" height="10" style="fill: rgb(55, 55, 55); stroke-width: 1;" rx="3" ry="3">
      <title>led</title>
    </rect>
    <rect x="173.892" y="161.615" width="5" height="10" style="fill: rgb(55, 55, 55); stroke-width: 1;" rx="3" ry="3">
      <title>led</title>
    </rect>
    <rect x="167.04" y="161.615" width="5" height="10" style="fill: rgb(55, 55, 55); stroke-width: 1;" rx="3" ry="3">
      <title>led</title>
    </rect>
    <rect x="160.188" y="161.615" width="5" height="10" style="fill: rgb(55, 55, 55); stroke-width: 1;" rx="3" ry="3">
      <title>led</title>
    </rect>
    <rect x="153.336" y="161.615" width="5" height="10" style="fill: rgb(55, 55, 55); stroke-width: 1;" rx="3" ry="3">
      <title>led</title>
    </rect>
    <rect x="146.484" y="161.615" width="5" height="10" style="fill: rgb(55, 55, 55); stroke-width: 1;" rx="3" ry="3">
      <title>led</title>
    </rect>
    <rect x="139.632" y="161.615" width="5" height="10" style="fill: rgb(55, 55, 55); stroke-width: 1;" rx="3" ry="3">
      <title>led</title>
    </rect>
    <rect x="132.78" y="161.615" width="5" height="10" style="fill: rgb(55, 55, 55); stroke-width: 1;" rx="3" ry="3">
      <title>led</title>
    </rect>
    <rect x="36.852" y="161.615" width="5" height="10" style="fill: rgb(55, 55, 55); stroke-width: 1;" rx="3" ry="3" id="rect-1">
      <title>led</title>
    </rect>
    <rect x="43.704" y="161.615" width="5" height="10" style="fill: rgb(55, 55, 55); stroke-width: 1;" rx="3" ry="3" id="rect-2">
      <title>led</title>
    </rect>
    <rect x="50.556" y="161.615" width="5" height="10" style="fill: rgb(55, 55, 55); stroke-width: 1;" rx="3" ry="3" id="rect-3">
      <title>led</title>
    </rect>
  </g>
</svg>