<svg xmlns="http://www.w3.org/2000/svg" viewBox="0 0 1200 1200" fill="none" width="1200" height="1200">
    <path x="0" y="0" width="300" height="300" rx="56" fill="#D1D5DB" d="M224 0h752a224 224 0 0 1 224 224v752a224 224 0 0 1 -224 224H224A224 224 0 0 1 0 976V224A224 224 0 0 1 224 0"/>
    <path x="18" y="18" width="264" height="264" rx="40" fill="#9CA3AF" d="M232 72h736a160 160 0 0 1 160 160v736a160 160 0 0 1 -160 160H232A160 160 0 0 1 72 968V232A160 160 0 0 1 232 72"/>
    <path x="52" y="58" width="196" height="46" rx="14" fill="#6B7280" d="M264 232h672a56 56 0 0 1 56 56v72a56 56 0 0 1 -56 56H264a56 56 0 0 1 -56 -56v-72a56 56 0 0 1 56 -56"/>
    <path x="52" y="127" width="196" height="46" rx="14" fill="#6B7280" d="M264 508h672a56 56 0 0 1 56 56v72a56 56 0 0 1 -56 56H264a56 56 0 0 1 -56 -56v-72a56 56 0 0 1 56 -56"/>
    <path x="52" y="196" width="196" height="46" rx="14" fill="#6B7280" d="M264 784h672a56 56 0 0 1 56 56v72a56 56 0 0 1 -56 56H264a56 56 0 0 1 -56 -56v-72a56 56 0 0 1 56 -56"/>
    <path cx="84" cy="81" r="9" fill="#84CC16" d="M372 324a36 36 0 0 1 -36 36 36 36 0 0 1 -36 -36 36 36 0 0 1 72 0"/>
    <path cx="112" cy="81" r="9" fill="#84CC16" d="M484 324a36 36 0 0 1 -36 36 36 36 0 0 1 -36 -36 36 36 0 0 1 72 0"/>
    <path cx="140" cy="81" r="9" fill="#84CC16" d="M596 324a36 36 0 0 1 -36 36 36 36 0 0 1 -36 -36 36 36 0 0 1 72 0"/>
    <path cx="84" cy="150" r="9" fill="#84CC16" d="M372 600a36 36 0 0 1 -36 36 36 36 0 0 1 -36 -36 36 36 0 0 1 72 0"/>
    <path cx="112" cy="150" r="9" fill="#84CC16" d="M484 600a36 36 0 0 1 -36 36 36 36 0 0 1 -36 -36 36 36 0 0 1 72 0"/>
    <path cx="140" cy="150" r="9" fill="#84CC16" d="M596 600a36 36 0 0 1 -36 36 36 36 0 0 1 -36 -36 36 36 0 0 1 72 0"/>
    <path cx="84" cy="219" r="9" fill="#84CC16" d="M372 876a36 36 0 0 1 -36 36 36 36 0 0 1 -36 -36 36 36 0 0 1 72 0"/>
    <path cx="112" cy="219" r="9" fill="#84CC16" d="M484 876a36 36 0 0 1 -36 36 36 36 0 0 1 -36 -36 36 36 0 0 1 72 0"/>
    <path cx="140" cy="219" r="9" fill="#84CC16" d="M596 876a36 36 0 0 1 -36 36 36 36 0 0 1 -36 -36 36 36 0 0 1 72 0"/>
    <path x="186" y="76" width="34" height="10" rx="5" fill="#E5E7EB" d="M764 304h96a20 20 0 0 1 20 20 20 20 0 0 1 -20 20h-96a20 20 0 0 1 -20 -20 20 20 0 0 1 20 -20"/>
    <path x="186" y="145" width="34" height="10" rx="5" fill="#E5E7EB" d="M764 580h96a20 20 0 0 1 20 20 20 20 0 0 1 -20 20h-96a20 20 0 0 1 -20 -20 20 20 0 0 1 20 -20"/>
    <path x="186" y="214" width="34" height="10" rx="5" fill="#E5E7EB" d="M764 856h96a20 20 0 0 1 20 20 20 20 0 0 1 -20 20h-96a20 20 0 0 1 -20 -20 20 20 0 0 1 20 -20"/>
</svg>
